<?xml version="1.0" encoding="UTF-8"?>
<!DOCTYPE svg PUBLIC "-//W3C//DTD SVG 1.1//EN" "http://www.w3.org/Graphics/SVG/1.1/DTD/svg11.dtd">
<!-- Creator: CorelDRAW 2017 -->
<svg xmlns="http://www.w3.org/2000/svg" xml:space="preserve" width="96.6016mm" height="29.092mm" version="1.1" style="shape-rendering:geometricPrecision; text-rendering:geometricPrecision; image-rendering:optimizeQuality; fill-rule:evenodd; clip-rule:evenodd"
viewBox="0 0 11192.3 3370.61"
 xmlns:xlink="http://www.w3.org/1999/xlink">
 <defs>
  <style type="text/css">
   <![CDATA[
    .fil0 {fill:#FEFEFE}
    .fil2 {fill:#8B0002}
    .fil5 {fill:#AEAFB3}
    .fil1 {fill:#2E2E2D;fill-rule:nonzero}
    .fil4 {fill:#8B0002;fill-rule:nonzero}
    .fil3 {fill:#AEAFB3;fill-rule:nonzero}
   ]]>
  </style>
 </defs>
 <g id="Warstwa_x0020_1">
  <metadata id="CorelCorpID_0Corel-Layer"/>
  <rect class="fil0" x="0.03" y="0" width="8522.04" height="3370.6"/>
  <path class="fil1" d="M2619.89 2121.57l46.9 0c50.2,0 89.39,-11.45 117.56,-34.35 28.19,-22.89 42.28,-54.59 42.28,-95.11 0,-38.3 -12.55,-68.14 -37.64,-89.49 -25.11,-21.36 -60.11,-32.04 -105.03,-32.04l-140.02 0c1.76,7.48 2.64,14.53 2.64,21.13l0 398.28c0,5.72 -0.88,12.77 -2.64,21.13l79.26 0c-1.32,-4.84 -2.21,-8.7 -2.65,-11.56 -0.44,-2.86 -0.66,-6.05 -0.66,-9.57l0 -168.43zm0 -33.69l0 -185.6 45.58 0c26.86,0 48,8.04 63.41,24.21 15.41,16.08 23.11,38.32 23.11,66.61 0,18.6 -3.63,35.12 -10.9,49.75 -7.26,14.53 -17.27,25.55 -30.04,33.14 -13.22,7.92 -30.39,11.89 -51.52,11.89l-39.64 0z"/>
  <path id="1" class="fil1" d="M3017.51 1959.08c-23.77,0 -45.46,4.07 -65.06,12.21 -19.59,8.14 -36.32,19.82 -50.2,35.01 -13.87,15.19 -24.54,33.46 -32.04,54.81 -7.48,21.36 -11.23,45.26 -11.23,71.67 0,28.62 3.64,54.27 10.9,76.94 7.26,22.69 17.83,41.94 31.7,57.79 13.87,15.86 30.61,28.07 50.2,36.66 19.59,8.6 41.72,12.88 66.38,12.88 24.23,0 46.02,-4.18 65.39,-12.55 19.37,-8.37 35.88,-20.25 49.54,-35.67 13.65,-15.41 24.21,-34.12 31.7,-56.13 7.48,-22.01 11.23,-46.68 11.23,-73.98 0,-27.74 -3.63,-52.73 -10.89,-74.96 -7.28,-22.25 -17.84,-41.06 -31.71,-56.48 -13.87,-15.41 -30.6,-27.3 -50.19,-35.66 -19.6,-8.37 -41.5,-12.55 -65.73,-12.55zm0 29.06c27.53,0 49.1,13.32 64.85,40.08 15.73,26.74 23.66,63.4 23.66,109.86 0,46.01 -8.03,82.56 -23.99,109.53 -15.97,26.97 -37.42,40.4 -64.51,40.4 -27.52,0 -49.09,-13.43 -64.84,-40.4 -15.75,-26.97 -23.67,-63.97 -23.67,-110.86 0,-22.79 2.1,-43.26 6.28,-61.53 4.29,-18.17 10.13,-33.69 17.72,-46.68 7.5,-12.88 16.85,-22.89 27.97,-29.83 11.01,-7.04 23.23,-10.57 36.54,-10.57z"/>
  <path id="2" class="fil1" d="M3243.4 1836.22c0.89,3.96 1.55,7.38 1.99,10.24 0.44,2.86 0.66,6.49 0.66,10.9l0 432.62c0,7.04 -0.88,14.09 -2.65,21.13l73.32 0c-0.88,-4.4 -1.54,-8.04 -1.98,-10.9 -0.44,-2.86 -0.66,-6.27 -0.66,-10.23l0 -432.62c0,-4.41 0.22,-8.04 0.66,-10.9 0.44,-2.86 1.1,-6.28 1.98,-10.24l-73.32 0z"/>
  <path id="3" class="fil1" d="M3436.27 1873.88c-12.77,0 -23.01,2.86 -30.71,8.59 -7.7,5.72 -11.56,13.21 -11.56,22.45 0,10.13 3.75,17.95 11.24,23.45 7.48,5.5 18.05,8.25 31.7,8.25 12.77,0 22.89,-2.86 30.38,-8.59 7.48,-5.72 11.23,-13.43 11.23,-23.11 0,-9.69 -3.74,-17.29 -11.23,-22.79 -7.48,-5.5 -17.83,-8.25 -31.04,-8.25zm-37.64 93.13c0.88,3.96 1.54,7.37 1.98,10.23 0.44,2.86 0.66,6.5 0.66,10.9l0 301.85c0,4.4 -0.22,8.03 -0.66,10.89 -0.44,2.86 -1.1,6.28 -1.98,10.24l73.3 0c-0.88,-4.4 -1.54,-8.04 -1.98,-10.9 -0.44,-2.86 -0.66,-6.27 -0.66,-10.23l0 -301.85c0,-3.96 0.22,-7.38 0.66,-10.24 0.44,-2.86 1.1,-6.49 1.98,-10.89l-73.3 0z"/>
  <path id="4" class="fil1" d="M3571.01 1998.71l0 250.99c0,23.35 5.28,40.4 15.85,51.19 10.57,10.8 27.3,16.19 50.19,16.19 10.14,0 19.71,-0.98 28.73,-2.97 9.03,-1.98 18.83,-5.4 29.39,-10.24l0 -35.67c-8.69,4.74 -14.75,7.6 -18.27,8.82 -3.52,1.2 -7.6,1.76 -12.44,1.76 -16.95,0 -25.43,-10.14 -25.43,-30.49l0 -249.56 54.83 0 0 -31.7 -54.83 0 0 -48.88c0,-2.2 0,-4.62 0,-7.26 0,-2.64 0.44,-8.59 1.32,-17.83l-69.34 7.92 0 66.05 -50.86 0 0 31.7 50.86 0z"/>
  <path id="5" class="fil1" d="M4008.92 2244.41c-16.73,14.09 -32.81,24.21 -48.22,30.39 -15.41,6.16 -32.36,9.25 -50.85,9.25 -50.64,0 -84.1,-22.47 -100.4,-67.37 -2.2,-6.6 -4.07,-12.88 -5.61,-18.83 -1.54,-5.94 -2.86,-12.33 -3.96,-19.15 -1.1,-6.82 -1.88,-14.42 -2.32,-22.79 -0.44,-8.37 -0.66,-18.05 -0.66,-29.06l238.44 0c-2.2,-54.16 -15.97,-95.67 -41.28,-124.5 -25.32,-28.85 -60.87,-43.26 -106.67,-43.26 -25.1,0 -47.55,4.18 -67.37,12.55 -19.81,8.37 -36.66,20.37 -50.53,36 -13.87,15.63 -24.43,34.68 -31.7,57.13 -7.26,22.45 -10.9,47.78 -10.9,75.96 0,56.81 14.97,100.39 44.92,130.78 29.94,30.38 73.1,45.57 129.45,45.57 11.02,0 21.36,-0.44 31.05,-1.32 9.69,-0.88 19.15,-2.53 28.4,-4.96 9.25,-2.42 18.61,-5.5 28.07,-9.25 9.47,-3.74 19.71,-8.25 30.71,-13.53l-10.57 -43.6zm-210.04 -147.95c3.52,-33.46 12.66,-59.44 27.41,-77.94 14.75,-18.49 33.8,-27.74 57.13,-27.74 16.73,0 31.49,5.06 44.26,15.19 12.77,10.13 22.01,24.45 27.74,42.94 2.2,7.48 3.86,14.41 4.96,20.81 1.1,6.38 2.09,15.29 2.97,26.74l-164.46 0z"/>
  <path id="6" class="fil1" d="M4337.18 2245.07c-15.41,13.65 -29.28,23.23 -41.61,28.73 -12.33,5.5 -25.98,8.26 -40.96,8.26 -30.82,0 -54.81,-12.66 -71.98,-38.09 -17.18,-25.32 -25.77,-60.77 -25.77,-106.23 0,-45.46 9.03,-81.35 27.09,-107.54 18.05,-26.31 42.93,-39.42 74.63,-39.42 7.06,0 13.54,0.56 19.49,1.66 5.94,1.1 11.89,2.97 17.83,5.39 5.94,2.54 12.22,5.84 18.83,10.13 6.6,4.3 14.09,9.8 22.45,16.52l0 -50.86c-15.85,-5.28 -30.16,-9.03 -42.93,-11.23 -12.77,-2.2 -26.2,-3.3 -40.3,-3.3 -26.42,0 -50.09,4.29 -71,12.87 -20.91,8.59 -38.74,20.81 -53.39,36.66 -14.64,15.86 -25.98,35.12 -34.02,57.8 -8.04,22.67 -12,48.11 -12,76.28 0,55.05 13.76,97.87 41.28,128.47 27.53,30.6 65.95,45.9 115.26,45.9 8.81,0 16.41,-0.22 22.79,-0.66 6.38,-0.44 12.99,-1.54 19.81,-3.3 6.82,-1.76 14.42,-4.3 22.79,-7.6 8.37,-3.3 18.93,-7.59 31.7,-12.87l0 -47.56z"/>
  <path id="7" class="fil1" d="M4464.66 2311.12c-0.88,-4.4 -1.54,-8.04 -1.98,-10.9 -0.44,-2.86 -0.66,-6.27 -0.66,-10.23l0 -202.34c0,-24.99 6.94,-44.58 20.92,-58.56 13.97,-14.1 33.24,-21.14 57.57,-21.14 22.79,0 39.3,5.84 49.75,17.51 10.46,11.56 15.75,30.16 15.75,55.71l0 208.83c0,4.4 -0.22,8.03 -0.66,10.89 -0.44,2.86 -1.1,6.28 -1.98,10.24l73.32 0c-0.88,-4.4 -1.54,-8.04 -1.98,-10.9 -0.44,-2.86 -0.66,-6.27 -0.66,-10.23l0 -231.18c0,-31.7 -9.47,-56.25 -28.29,-73.64 -18.93,-17.4 -45.68,-26.09 -80.36,-26.09 -22.79,0 -42.27,4.07 -58.23,12.21 -16.07,8.14 -31.04,21.69 -45.14,40.62l0 -154.55c0,-4.41 0.22,-8.04 0.66,-10.9 0.44,-2.86 1.1,-6.28 1.98,-10.24l-73.32 0c0.89,3.96 1.55,7.26 1.99,9.91 0.44,2.64 0.66,6.38 0.66,11.24l0 432.62c0,7.04 -0.88,14.09 -2.65,21.13l73.32 0z"/>
  <path id="8" class="fil1" d="M4759.24 1967.01c1.76,7.04 2.64,14.09 2.64,21.13l0 301.85c0,4.84 -0.22,8.59 -0.66,11.23 -0.44,2.64 -1.1,5.94 -1.98,9.91l73.3 0c-0.88,-4.4 -1.54,-8.04 -1.98,-10.9 -0.44,-2.86 -0.66,-6.27 -0.66,-10.23l0 -201.02c0,-25.42 6.94,-45.35 20.92,-59.55 13.97,-14.31 33.58,-21.47 58.89,-21.47 21.03,0 36.98,5.28 48.11,15.86 11.12,10.45 16.73,25.64 16.73,45.46l0 220.71c0,4.84 -0.22,8.69 -0.66,11.55 -0.44,2.86 -1.1,6.06 -1.98,9.58l73.32 0c-1.76,-7.48 -2.64,-14.53 -2.64,-21.13l0 -231.18c0,-27.3 -6.38,-48.66 -19.05,-64.07 -10.13,-11.45 -22.79,-20.25 -37.86,-26.42 -15.19,-6.16 -32.15,-9.25 -51.08,-9.25 -24.99,0 -45.79,4.4 -62.19,13.21 -16.51,8.81 -31.05,23.11 -43.82,42.93l0 -48.21 -69.34 0z"/>
  <path id="9" class="fil1" d="M5166.1 1873.88c-12.77,0 -23.01,2.86 -30.71,8.59 -7.7,5.72 -11.56,13.21 -11.56,22.45 0,10.13 3.75,17.95 11.24,23.45 7.48,5.5 18.05,8.25 31.7,8.25 12.77,0 22.89,-2.86 30.38,-8.59 7.48,-5.72 11.23,-13.43 11.23,-23.11 0,-9.69 -3.74,-17.29 -11.23,-22.79 -7.48,-5.5 -17.83,-8.25 -31.04,-8.25zm-37.64 93.13c0.88,3.96 1.54,7.37 1.98,10.23 0.44,2.86 0.66,6.5 0.66,10.9l0 301.85c0,4.4 -0.22,8.03 -0.66,10.89 -0.44,2.86 -1.1,6.28 -1.98,10.24l73.3 0c-0.88,-4.4 -1.54,-8.04 -1.98,-10.9 -0.44,-2.86 -0.66,-6.27 -0.66,-10.23l0 -301.85c0,-3.96 0.22,-7.38 0.66,-10.24 0.44,-2.86 1.1,-6.49 1.98,-10.89l-73.3 0z"/>
  <path id="10" class="fil1" d="M5358.96 2134.11l128.8 157.2 3.3 4.62 5.94 8.59c0.88,1.76 2.2,3.96 3.96,6.6l87.18 0c-3.52,-3.08 -6.27,-5.62 -8.25,-7.6 -1.98,-1.98 -4.74,-5.39 -8.26,-10.23l-157.86 -198.16 105.02 -109.64 11.89 -12.55c1.32,-1.32 3.74,-3.3 7.28,-5.94l-54.83 0c-2.2,3.96 -4.08,7.15 -5.62,9.57 -1.54,2.42 -3.63,4.96 -6.27,7.6l-112.29 123.52 0 -250.33c0,-4.41 0.22,-8.04 0.66,-10.9 0.44,-2.86 1.1,-6.28 1.98,-10.24l-73.32 0c0.89,3.96 1.55,7.38 1.99,10.24 0.44,2.86 0.66,6.49 0.66,10.9l0 432.62c0,4.4 -0.22,8.03 -0.66,10.89 -0.44,2.86 -1.1,6.28 -1.99,10.24l73.32 0c-0.88,-4.4 -1.54,-8.04 -1.98,-10.9 -0.44,-2.86 -0.66,-6.27 -0.66,-10.23l0 -155.88z"/>
  <path id="11" class="fil1" d="M5898.59 2262.24c-6.16,3.96 -10.57,6.6 -13.21,7.94 -2.64,1.32 -5.72,1.98 -9.25,1.98 -13.66,0 -20.48,-9.7 -20.48,-29.07l0 -204.75c0,-25.11 -9.57,-44.58 -28.72,-58.46 -19.16,-13.87 -46.58,-20.8 -82.24,-20.8 -11.01,0 -21.25,0.44 -30.71,1.32 -9.47,0.88 -18.83,2.42 -28.07,4.62 -9.25,2.2 -18.71,5.17 -28.4,8.91 -9.69,3.74 -20.47,8.26 -32.36,13.54l10.57 44.26c9.25,-7.04 17.49,-12.88 24.99,-17.51 7.48,-4.62 14.53,-8.37 21.35,-11.23 6.82,-2.86 13.75,-4.84 20.69,-5.94 7.04,-1.1 14.53,-1.66 22.35,-1.66 18.49,0 33.46,4.52 45.13,13.54 11.56,9.03 17.4,21.03 17.4,36 0,12.33 -3.42,22.13 -10.24,29.39 -6.72,7.26 -18.27,13.31 -34.56,18.16 -19.27,5.72 -34.79,10.46 -46.36,14.2 -11.67,3.74 -21.24,7.04 -28.62,9.91 -7.48,2.86 -13.76,5.62 -18.83,8.26 -5.06,2.64 -10.57,5.94 -16.73,9.91 -28.07,18.93 -42.16,46.89 -42.16,83.88 0,29.94 8.48,53.83 25.32,71.66 16.96,17.83 39.64,26.75 68.15,26.75 22.45,0 41.72,-3.96 57.91,-11.89 16.29,-7.92 32.36,-21.35 48.11,-40.3 4.4,19.38 11.01,32.92 19.7,40.62 8.7,7.72 21.47,11.56 38.32,11.56 8.91,0 17.07,-1.2 24.55,-3.63 7.48,-2.43 16.29,-6.94 26.42,-13.54l0 -37.65zm-110.96 -66.7c0,10.57 -1.98,20.58 -5.94,30.04 -3.97,9.48 -9.26,17.73 -16.08,24.77 -6.82,7.04 -14.85,12.55 -24.32,16.51 -9.36,3.97 -19.38,5.96 -29.95,5.96 -16.63,0 -30.05,-5.51 -40.4,-16.52 -10.23,-11.01 -15.41,-25.76 -15.41,-44.25 0,-35.67 20.91,-61.21 62.75,-76.62 9.69,-3.96 19.04,-7.7 28.07,-11.23 9.03,-3.52 17.94,-6.82 26.74,-9.91 2.64,-1.32 5.28,-2.64 7.92,-3.96 2.65,-1.32 5.07,-2.86 7.28,-4.62l-0.66 89.83z"/>
  <path id="12" class="fil1" d="M6130.43 2129.49l0 161.49c0,3.96 -0.22,7.26 -0.66,10.13 -0.44,2.76 -1.1,6.16 -1.98,10.02l223.24 0 0 -38.3c-3.96,1.32 -7.15,2.2 -9.57,2.64 -2.42,0.44 -6.72,0.66 -12.88,0.66l-124.84 0 0 -194.85 95.12 -75.3 -20.48 -27.08 -74.64 59.45 0 -145.97c0,-4.4 0.22,-8.04 0.66,-10.9 0.44,-2.86 1.11,-6.27 1.99,-10.23l-78.6 0c0.88,3.96 1.54,7.37 1.98,10.23 0.44,2.86 0.66,6.5 0.66,10.9l0 194.18 -57.47 44.92 20.47 27.74 36.99 -29.72z"/>
  <path id="13" class="fil1" d="M6541.25 1959.08c-23.77,0 -45.46,4.07 -65.06,12.21 -19.59,8.14 -36.32,19.82 -50.2,35.01 -13.87,15.19 -24.54,33.46 -32.04,54.81 -7.48,21.36 -11.23,45.26 -11.23,71.67 0,28.62 3.64,54.27 10.9,76.94 7.26,22.69 17.83,41.94 31.7,57.79 13.87,15.86 30.61,28.07 50.2,36.66 19.59,8.6 41.72,12.88 66.38,12.88 24.23,0 46.02,-4.18 65.39,-12.55 19.37,-8.37 35.88,-20.25 49.54,-35.67 13.65,-15.41 24.21,-34.12 31.7,-56.13 7.48,-22.01 11.23,-46.68 11.23,-73.98 0,-27.74 -3.63,-52.73 -10.89,-74.96 -7.28,-22.25 -17.84,-41.06 -31.71,-56.48 -13.87,-15.41 -30.6,-27.3 -50.19,-35.66 -19.6,-8.37 -41.5,-12.55 -65.73,-12.55zm0 29.06c27.53,0 49.1,13.32 64.85,40.08 15.73,26.74 23.66,63.4 23.66,109.86 0,46.01 -8.03,82.56 -23.99,109.53 -15.97,26.97 -37.42,40.4 -64.51,40.4 -27.52,0 -49.09,-13.43 -64.84,-40.4 -15.75,-26.97 -23.67,-63.97 -23.67,-110.86 0,-22.79 2.1,-43.26 6.28,-61.53 4.29,-18.17 10.13,-33.69 17.72,-46.68 7.5,-12.88 16.85,-22.89 27.97,-29.83 11.01,-7.04 23.23,-10.57 36.54,-10.57zm-35 -60.11l33.02 0 69.35 -102.37 -57.47 0 -44.91 102.37z"/>
  <path id="14" class="fil1" d="M6976.51 2311.12l70.01 0c-0.88,-4.4 -1.54,-8.04 -1.98,-10.9 -0.44,-2.86 -0.66,-6.27 -0.66,-10.23l0 -432.62c0,-7.06 0.88,-14.1 2.64,-21.14l-73.32 0c0.88,3.96 1.54,7.38 1.98,10.24 0.44,2.86 0.66,6.49 0.66,10.9l0 145.96c-11.45,-15.41 -24.11,-26.64 -38.2,-33.68 -14.09,-7.04 -31.37,-10.57 -52.07,-10.57 -42.06,0 -74.96,15.85 -98.41,47.55 -23.45,31.71 -35.23,75.74 -35.23,132.1 0,27.74 2.86,52.62 8.59,74.64 5.72,22.01 13.88,40.72 24.67,56.13 10.79,15.42 23.89,27.19 39.52,35.34 15.63,8.16 33.02,12.22 52.39,12.22 22.35,0 40.84,-4.18 55.27,-12.55 14.53,-8.37 29.17,-22.89 44.14,-43.6l0 50.2zm-73.98 -315.72c25.1,0 44.14,11.56 57.13,34.68 12.99,23.11 19.49,57.35 19.49,102.71 0,24.66 -1.54,45.24 -4.62,61.75 -3.08,16.51 -8.14,31.15 -15.19,43.92 -6.16,11.01 -14.64,19.71 -25.43,26.09 -10.79,6.38 -22.57,9.58 -35.34,9.58 -51.08,0 -76.62,-45.36 -76.62,-136.07 0,-46.24 6.82,-81.58 20.47,-106.01 13.66,-24.43 33.69,-36.66 60.11,-36.66z"/>
  <path id="15" class="fil1" d="M7100.02 2311.12l284.68 0 0 -37.64c-5.28,0.88 -9.58,1.54 -12.88,1.98 -3.3,0.44 -7.38,0.66 -12.22,0.66l-179.65 0 204.76 -274.22 0 -34.9 -282.7 0 0 36.32c5.72,-0.88 10.35,-1.54 13.87,-1.98 3.52,-0.44 7.7,-0.66 12.55,-0.66l177.02 0 -205.42 275.43 0 35z"/>
  <path id="16" class="fil1" d="M7510.19 2134.11l128.8 157.2 3.3 4.62 5.94 8.59c0.88,1.76 2.2,3.96 3.96,6.6l87.18 0c-3.52,-3.08 -6.27,-5.62 -8.25,-7.6 -1.98,-1.98 -4.74,-5.39 -8.26,-10.23l-157.86 -198.16 105.02 -109.64 11.89 -12.55c1.32,-1.32 3.74,-3.3 7.28,-5.94l-54.83 0c-2.2,3.96 -4.08,7.15 -5.62,9.57 -1.54,2.42 -3.63,4.96 -6.27,7.6l-112.29 123.52 0 -250.33c0,-4.41 0.22,-8.04 0.66,-10.9 0.44,-2.86 1.1,-6.28 1.98,-10.24l-73.32 0c0.89,3.96 1.55,7.38 1.99,10.24 0.44,2.86 0.66,6.49 0.66,10.9l0 432.62c0,4.4 -0.22,8.03 -0.66,10.89 -0.44,2.86 -1.1,6.28 -1.99,10.24l73.32 0c-0.88,-4.4 -1.54,-8.04 -1.98,-10.9 -0.44,-2.86 -0.66,-6.27 -0.66,-10.23l0 -155.88z"/>
  <path id="17" class="fil1" d="M8049.82 2262.24c-6.16,3.96 -10.57,6.6 -13.21,7.94 -2.64,1.32 -5.72,1.98 -9.25,1.98 -13.66,0 -20.48,-9.7 -20.48,-29.07l0 -204.75c0,-25.11 -9.57,-44.58 -28.72,-58.46 -19.16,-13.87 -46.58,-20.8 -82.24,-20.8 -11.01,0 -21.25,0.44 -30.71,1.32 -9.47,0.88 -18.83,2.42 -28.07,4.62 -9.25,2.2 -18.71,5.17 -28.4,8.91 -9.69,3.74 -20.47,8.26 -32.36,13.54l10.57 44.26c9.25,-7.04 17.49,-12.88 24.99,-17.51 7.48,-4.62 14.53,-8.37 21.35,-11.23 6.82,-2.86 13.75,-4.84 20.69,-5.94 7.04,-1.1 14.53,-1.66 22.35,-1.66 18.49,0 33.46,4.52 45.13,13.54 11.56,9.03 17.4,21.03 17.4,36 0,12.33 -3.42,22.13 -10.24,29.39 -6.72,7.26 -18.27,13.31 -34.56,18.16 -19.27,5.72 -34.79,10.46 -46.36,14.2 -11.67,3.74 -21.24,7.04 -28.62,9.91 -7.48,2.86 -13.76,5.62 -18.83,8.26 -5.06,2.64 -10.57,5.94 -16.73,9.91 -28.07,18.93 -42.16,46.89 -42.16,83.88 0,29.94 8.48,53.83 25.32,71.66 16.96,17.83 39.64,26.75 68.15,26.75 22.45,0 41.72,-3.96 57.91,-11.89 16.29,-7.92 32.36,-21.35 48.11,-40.3 4.4,19.38 11.01,32.92 19.7,40.62 8.7,7.72 21.47,11.56 38.32,11.56 8.91,0 17.07,-1.2 24.55,-3.63 7.48,-2.43 16.29,-6.94 26.42,-13.54l0 -37.65zm-110.96 -66.7c0,10.57 -1.98,20.58 -5.94,30.04 -3.97,9.48 -9.26,17.73 -16.08,24.77 -6.82,7.04 -14.85,12.55 -24.32,16.51 -9.36,3.97 -19.38,5.96 -29.95,5.96 -16.63,0 -30.05,-5.51 -40.4,-16.52 -10.23,-11.01 -15.41,-25.76 -15.41,-44.25 0,-35.67 20.91,-61.21 62.75,-76.62 9.69,-3.96 19.04,-7.7 28.07,-11.23 9.03,-3.52 17.94,-6.82 26.74,-9.91 2.64,-1.32 5.28,-2.64 7.92,-3.96 2.65,-1.32 5.07,-2.86 7.28,-4.62l-0.66 89.83z"/>
  <g id="_2864692172896">
   <rect class="fil2" x="-0.01" y="-0.01" width="2139.91" height="3361.51"/>
   <path class="fil3" d="M1084.51 1576.79c27.31,0 54.23,1.7 80.67,5.03 25.39,3.19 50.32,7.86 74.7,13.9l42.37 -81.46 2.69 -5.17 5.16 2.68 110.92 57.57 5.2 2.7 -2.69 5.17 -34.31 65.88c14.39,7.1 28.48,14.73 42.22,22.82 14.17,8.35 27.93,17.19 41.26,26.47l54.34 -59.81 3.92 -4.31 4.32 3.92 92.5 83.99 4.31 3.9 -3.93 4.32 -52.15 57.39c9.54,10.18 18.78,20.72 27.7,31.58 9.05,11.01 17.69,22.26 25.93,33.72l74.85 -37.04 5.21 -2.57 2.6 5.23 55.45 112.01 2.58 5.21 -5.23 2.58 -67.8 33.52c5.61,12.86 10.78,25.81 15.48,38.86 4.73,13.12 9.07,26.54 13.01,40.26l94.54 -9.73 5.79 -0.6 0.59 5.8 12.87 124.34 0.6 5.79 -5.8 0.59 -85 8.74c0.39,6.12 0.73,12.4 0.97,18.84 0.3,7.96 0.46,16.04 0.46,24.2 0,7.81 -0.15,15.5 -0.43,23.08 -0.23,6.19 -0.53,12.22 -0.9,18.11l89.41 24.21 5.64 1.53 -1.52 5.61 -32.61 120.68 -1.53 5.65 -5.61 -1.52 -77.05 -20.89c-4.34,15.22 -9.23,30.25 -14.67,45.07 -5.48,14.92 -11.49,29.6 -18.03,44.02l69.7 35.11 5.19 2.62 -2.62 5.2 -56.16 111.68 -2.62 5.2 -5.2 -2.62 -77.7 -39.16c-8.06,10.89 -16.44,21.5 -25.14,31.85 -8.53,10.14 -17.49,20.15 -26.87,29.98l51.38 63.16 3.67 4.51 -4.52 3.67 -96.92 78.95 -4.52 3.67 -3.67 -4.52 -49.54 -60.93c-11.6,7.92 -23.5,15.49 -35.67,22.7 -12.15,7.19 -24.6,14.03 -37.32,20.46l22.74 77.77 1.63 5.56 -5.6 1.65 -119.97 35.11 -5.56 1.63 -1.63 -5.6 -19.75 -67.63c-25.27,6.58 -51.18,11.68 -77.64,15.18 -27.84,3.68 -56.12,5.58 -84.74,5.58 -26.89,0 -53.41,-1.66 -79.47,-4.89 -24.74,-3.06 -49.07,-7.53 -72.9,-13.34l-24.13 69.24 -1.92 5.49 -5.49 -1.91 -118.04 -41.12 -5.49 -1.91 1.91 -5.5 24.63 -70.54c-12.94,-6.29 -25.66,-13 -38.14,-20.11 -12.66,-7.23 -25.01,-14.81 -37.01,-22.77l-59.46 59.18 -4.12 4.1 -4.11 -4.12 -88.19 -88.53 -4.11 -4.12 4.14 -4.1 50.14 -49.87c-10.51,-10.74 -20.57,-21.76 -30.16,-33.01 -9.79,-11.5 -19.23,-23.42 -28.3,-35.71l-60.82 32.82 -5.11 2.77 -2.78 -5.14 -59.45 -109.89 -2.77 -5.12 5.14 -2.77 56.66 -30.55c-5.92,-13.12 -11.45,-26.54 -16.54,-40.24 -5.18,-13.88 -9.86,-27.85 -14.03,-41.92l-83.14 4.51 -5.8 0.31 -0.32 -5.84 -6.87 -124.76 -0.32 -5.85 5.86 -0.31 65.92 -3.53c-0.48,-6.67 -0.87,-13.51 -1.17,-20.52 -0.36,-8.79 -0.56,-17.7 -0.56,-26.75 0,-8.23 0.16,-16.37 0.46,-24.4 0.25,-6.6 0.59,-13.05 1.02,-19.33l-59.6 -7.57 -5.76 -0.73 0.72 -5.77 15.64 -123.98 0.73 -5.78 5.77 0.74 66.16 8.45c4.55,-15.81 9.72,-31.41 15.44,-46.75 5.72,-15.33 11.99,-30.33 18.77,-44.99l-60.09 -31.75 -5.16 -2.72 2.71 -5.14 58.27 -110.57 2.72 -5.16 5.14 2.72 66.64 35.24c8.59,-11.44 17.53,-22.55 26.81,-33.33 9.28,-10.8 18.92,-21.28 28.9,-31.44l-42.89 -56.6 -3.52 -4.65 4.65 -3.52 99.5 -75.59 4.65 -3.53 3.53 4.68 39.51 52.18c12,-7.95 24.35,-15.55 37.03,-22.77 12.68,-7.23 25.61,-14.03 38.77,-20.38l-21.11 -68.3 -1.71 -5.55 5.57 -1.73 119.34 -37.03 5.55 -1.73 1.73 5.58 19.36 62.72c23.6,-5.69 47.66,-10.07 72.12,-13.07 25.89,-3.17 52.25,-4.81 78.97,-4.81zm79.26 16.61c-25.96,-3.27 -52.42,-4.95 -79.26,-4.95 -26.27,0 -52.15,1.61 -77.56,4.73 -25.89,3.17 -51.28,7.91 -76.06,14.11l-5.35 1.33 -1.63 -5.28 -19.26 -62.4 -108.21 33.59 20.88 67.54 1.48 4.82 -4.56 2.16c-14.51,6.87 -28.7,14.26 -42.56,22.16 -13.87,7.9 -27.49,16.37 -40.84,25.37l-4.58 3.09 -3.34 -4.41 -39.29 -51.91 -90.22 68.54 42.42 55.96 3.05 4.02 -3.57 3.59c-11.04,11.08 -21.68,22.56 -31.87,34.42 -10.22,11.88 -20,24.12 -29.3,36.69l-2.98 4.02 -4.41 -2.33 -65.89 -34.85 -52.83 100.25 59.85 31.62 4.94 2.61 -2.39 5.03c-7.61,16.09 -14.54,32.49 -20.76,49.14 -6.18,16.52 -11.69,33.41 -16.5,50.63l-1.37 4.85 -4.98 -0.64 -65.35 -8.34 -14.18 112.44 59.33 7.53 5.53 0.71 -0.42 5.5c-0.64,8.31 -1.11,16.44 -1.41,24.38 -0.3,8.03 -0.46,16.04 -0.46,23.98 0,8.74 0.19,17.51 0.56,26.3 0.36,8.48 0.92,17.16 1.63,26.02l0.49 5.98 -6.02 0.31 -66.08 3.56 6.23 113.09 81.92 -4.45 4.61 -0.24 1.3 4.5c4.48,15.56 9.5,30.75 15,45.53 5.58,14.99 11.77,29.8 18.51,44.4l2.29 4.97 -4.82 2.61 -56.33 30.38 53.9 99.64 60.17 -32.48 4.48 -2.42 3 4.12c9.7,13.36 19.96,26.42 30.77,39.1 10.83,12.72 22.05,24.91 33.61,36.52l4.1 4.12 -4.12 4.11 -50.13 49.84 79.98 80.27 58.73 -58.44 3.39 -3.38 3.97 2.66c13.14,8.86 26.56,17.19 40.2,24.98 13.71,7.82 27.76,15.15 42.1,21.97l4.73 2.25 -1.73 4.94 -24.42 69.97 107.03 37.28 23.97 -68.77 1.76 -5.04 5.16 1.31c24.97,6.29 50.55,11.12 76.64,14.34 25.57,3.17 51.63,4.81 78.06,4.81 28.3,0 56.08,-1.87 83.23,-5.46 27.74,-3.67 55,-9.16 81.64,-16.36l5.48 -1.47 1.61 5.49 19.71 67.49 108.79 -31.85 -22.48 -76.84 -1.37 -4.66 4.38 -2.18c13.89,-6.89 27.54,-14.32 40.92,-22.25 13.42,-7.94 26.56,-16.39 39.38,-25.32l4.44 -3.08 3.41 4.21 49.26 60.59 87.9 -71.59 -50.97 -62.63 -3.26 -4.01 3.6 -3.72c10.18,-10.53 20.15,-21.58 29.86,-33.12 9.59,-11.41 18.79,-23.15 27.57,-35.2l2.91 -3.99 4.44 2.22 76.9 38.76 50.92 -101.26 -69.52 -35.01 -5.03 -2.54 2.36 -5.1c7.3,-15.73 13.98,-31.84 20.01,-48.27 5.96,-16.24 11.27,-32.83 15.92,-49.73l1.55 -5.62 5.6 1.51 76.99 20.88 29.58 -109.42 -88.41 -23.96 -4.67 -1.26 0.34 -4.77c0.53,-7.68 0.95,-15.18 1.22,-22.48 0.28,-7.59 0.43,-15.14 0.43,-22.67 0,-7.89 -0.16,-15.83 -0.46,-23.8 -0.29,-7.81 -0.75,-15.84 -1.37,-24.03l-0.43 -5.64 5.67 -0.58 84.84 -8.71 -11.67 -112.77 -93.62 9.64 -4.88 0.5 -1.32 -4.74c-4.14,-14.82 -8.85,-29.56 -14.13,-44.18 -5.33,-14.78 -11.12,-29.17 -17.37,-43.17l-2.28 -5.11 5.02 -2.48 67.56 -33.4 -50.28 -101.59 -74.07 36.66 -4.47 2.2 -2.87 -4.08c-9.05,-12.79 -18.48,-25.16 -28.28,-37.09 -9.82,-11.96 -20.12,-23.59 -30.88,-34.89l-3.74 -3.93 3.65 -4.01 51.85 -57.06 -83.86 -76.14 -53.9 59.3 -3.48 3.83 -4.21 -2.99c-14.54,-10.3 -29.44,-19.95 -44.66,-28.93 -15.22,-8.98 -30.82,-17.33 -46.76,-25.01l-5.42 -2.61 2.78 -5.33 34.38 -65.99 -100.57 -52.2 -41.81 80.4 -2.13 4.11 -4.47 -1.15c-25.35,-6.49 -51.29,-11.45 -77.73,-14.76zm314.4 236.05c-51.45,-51.45 -112.86,-92.93 -181.01,-121.25 -65.57,-27.23 -137.41,-42.28 -212.65,-42.28 -75.25,0 -147.1,15.05 -212.67,42.28 -68.14,28.32 -129.54,69.79 -180.99,121.25 -51.45,51.45 -92.94,112.86 -121.26,181.01 -27.23,65.57 -42.28,137.4 -42.28,212.65 0,75.25 15.05,147.1 42.29,212.66 28.3,68.14 69.79,129.56 121.25,181.01 51.44,51.45 112.86,92.93 181,121.24 65.57,27.24 137.41,42.28 212.66,42.28 75.24,0 147.08,-15.05 212.65,-42.28 68.15,-28.32 129.56,-69.79 181.01,-121.25 51.45,-51.45 92.93,-112.86 121.24,-181 27.24,-65.57 42.29,-137.41 42.29,-212.66 0,-75.24 -15.05,-147.08 -42.29,-212.66 -28.3,-68.14 -69.78,-129.54 -121.24,-181zm-176.54 -132.01c69.6,28.92 132.29,71.27 184.79,123.76 52.51,52.5 94.84,115.19 123.75,184.79 27.83,66.98 43.19,140.33 43.19,217.12 0,76.8 -15.36,150.16 -43.19,217.13 -28.91,69.59 -71.24,132.28 -123.75,184.77 -52.5,52.5 -115.19,94.85 -184.79,123.76 -66.98,27.82 -140.33,43.19 -217.12,43.19 -76.79,0 -150.16,-15.36 -217.13,-43.19 -69.6,-28.91 -132.29,-71.25 -184.79,-123.75 -52.5,-52.5 -94.84,-115.19 -123.76,-184.79 -27.82,-66.98 -43.19,-140.34 -43.19,-217.13 0,-76.79 15.37,-150.14 43.19,-217.12 28.92,-69.6 71.27,-132.29 123.76,-184.79 52.5,-52.51 115.19,-94.85 184.79,-123.76 66.98,-27.82 140.33,-43.19 217.13,-43.19 76.79,0 150.14,15.37 217.12,43.19z"/>
   <path class="fil3" d="M998.16 1638.29l185.81 0 15.88 0 -0.39 15.85 -35.06 1422.51 -0.08 3.56 -1.73 3.28c-7.28,13.81 -13.43,25.95 -18.85,36.62 -21.45,42.25 -33.01,65.02 -52.51,65.21 -21.94,0.2 -35.14,-29.59 -63.72,-94.22 -1.09,-2.46 -2.21,-4.98 -3.35,-7.57l-1.25 -2.82 -0.08 -2.99 -40.16 -1423.53 -0.45 -15.91 15.94 0z"/>
   <path class="fil4" d="M1168.08 1669.27l-153.98 0 39.62 1404.62c0.71,1.6 1.41,3.19 2.1,4.74 22.93,51.82 33.5,75.71 35.16,75.7 0.72,-0.01 9.28,-16.87 25.15,-48.14 5.13,-10.1 10.9,-21.48 17.37,-33.83l34.57 -1403.09z"/>
   <path class="fil3" d="M751.7 1853.49l683.11 0 14.6 0 0 14.6 0 637.89c0,27.52 -11.25,52.52 -29.37,70.63 -18.11,18.12 -43.11,29.37 -70.63,29.37l-176.81 0c-1.02,0 -1.98,-0.01 -2.98,-0.02 -15.87,-0.14 -45.02,-0.39 -66.27,47.63l-17.02 38.47 -10.46 -40.75c-11.77,-45.81 -49.5,-45.46 -63.32,-45.35 -0.8,0.01 -1.52,0.02 -2.31,0.02l-170.6 0c-28.21,0 -53.85,-11.54 -72.42,-30.11 -18.57,-18.57 -30.11,-44.21 -30.11,-72.41l0 -635.37 0 -14.6 14.6 0z"/>
   <polygon class="fil3" points="1306.22,1669.27 872.25,1669.27 856.76,1669.27 856.76,1653.78 856.76,1493.05 856.76,1477.56 872.25,1477.56 1306.22,1477.56 1321.72,1477.56 1321.72,1493.05 1321.72,1653.78 1321.72,1669.27 "/>
   <polygon class="fil4" points="887.75,1638.29 1290.73,1638.29 1290.73,1508.54 887.75,1508.54 "/>
   <path class="fil5" d="M403.16 2196.97l0 -202.4c0,-29.03 7.24,-39.51 33.56,-39.51 53.97,0 74.36,37.9 74.36,122.56 0,87.09 -25,119.35 -88.84,119.35l-19.08 0zm30.93 -270.94l-193.48 0 0 20.16c43.44,3.22 57.25,20.15 57.25,71.76l0 358.02c0,54.84 -11.84,74.19 -57.91,75.8l0 20.97 221.77 0 0 -20.97c-50.02,-2.41 -58.57,-21.77 -58.57,-75.8l0 -149.98 58.57 0c107.26,0 163.86,-60.48 163.86,-151.59 0,-58.06 -25,-104.83 -70.41,-129.01 -34.23,-18.56 -73.71,-19.36 -121.09,-19.36z"/>
   <path class="fil5" d="M1585.89 2471.1l363 0 23.99 -184.67 -17.04 0c-33.47,118.03 -77.65,151.74 -164.78,151.74 -45.46,0 -49.25,-12.04 -49.25,-65.83l0 -191.9 104.81 -93.15 0 -44.17 -104.81 93.14 0 -118.03c0,-56.2 9.48,-70.66 64.4,-71.46l0 -20.07 -219.69 0 0 20.07c41.66,2.4 54.93,20.07 54.93,71.46l0 183.87 -70.08 61.83 0 43.35 70.08 -61.82 0 129.27c0,54.62 -11.37,73.88 -55.56,75.48l0 20.88z"/>
   <path class="fil5" d="M1250.61 1450.73c59.1,-173.14 193.29,-79.27 289.95,-131.42l18.13 -39.25c-32.89,4.9 -70.37,4.5 -108.63,4.12 -33.87,-0.32 -68.39,-0.68 -99.8,2.62 -79.86,8.4 -143.46,41.43 -137.61,163.93l37.96 0zm317.96 -192.08l14.78 -32.02c-43.6,6.22 -96.01,5.21 -149.75,4.21 -77.31,-1.46 -157.45,-2.97 -214.55,16.99 -66.75,23.32 -102.62,78.15 -65.14,202.92l39.38 0c-6.64,-136.77 65.02,-173.67 155,-183.14 32.93,-3.46 67.74,-3.12 101.92,-2.78 42.71,0.42 84.43,0.85 118.35,-6.16zm24.57 -53.25l16.68 -36.14c-77.6,9.47 -166.25,6.44 -251.81,3.53 -126.53,-4.31 -246.26,-8.39 -308.56,28.39 -56.99,33.65 -65.45,104.95 15.28,249.55l69.05 0c-38.91,-134.4 2.91,-194.58 78.91,-221.14 60.55,-21.16 142.31,-19.63 221.2,-18.13 58.43,1.1 115.26,2.19 159.24,-6.06zm26.24 -56.86l33.82 -73.28c-106.72,62.5 -290.39,25.27 -484.33,2.32 -225.28,-26.65 -445.6,63.93 -235.34,373.16l109.12 0c-81.8,-150.7 -68.51,-227.54 -3.04,-266.19 67.22,-39.68 189.64,-35.52 319.01,-31.12 89.41,3.04 182.2,6.21 260.76,-4.89z"/>
   <path class="fil4" d="M1420.22 1882.68l-653.92 0 0 620.77c0,20.15 8.25,38.48 21.55,51.78 13.3,13.3 31.63,21.55 51.79,21.55l170.6 0c0.53,0 1.29,-0.01 2.09,-0.01 16.45,-0.15 56.37,-0.51 79.64,37.61 26.96,-38.05 59.01,-37.78 77.87,-37.61 1.01,0 1.97,0.01 2.76,0.01l176.81 0c19.46,0 37.16,-7.97 49.99,-20.81 12.84,-12.84 20.81,-30.53 20.81,-49.99l0 -623.29z"/>
   <path class="fil5" d="M821.83 2140.18l40.63 0 16.81 24.76 44.84 0 46.24 71.93 235.39 0 44.84 -71.93 49.04 0 19.62 -48.15 30.83 0c-19.68,125.02 -54.59,203.23 -107.89,238.59l-280.24 0c-65.62,-29.65 -108.12,-107.07 -140.11,-215.2z"/>
   <path class="fil5" d="M975.27 2378.12l7.45 -15.43 53.77 -111.46 107.68 -223.16 -10.07 -4.69 8.37 -15.4 37.24 17.7 -6.94 14.38 -8.79 -3.8 -104.56 214.97 -54.23 111.46 -10.82 22.26c7.44,9.93 10.72,20.88 5.91,31.98l-46.37 98.21 -54.36 -26.08 44.77 -96.4c5.05,-10.83 19.68,-13.41 30.97,-14.54z"/>
  </g>
  <path class="fil1" d="M2652.47 2957.24c-14.36,-1.49 -27.2,-2.25 -38.57,-2.25 -11.66,0 -24.67,0.75 -39.01,2.25 3.29,-37.36 4.94,-88.34 4.94,-152.91 0,-66.06 -1.65,-117.19 -4.94,-153.36 13.15,1.8 26.16,2.69 39.01,2.69 13.15,0 26.01,-0.89 38.57,-2.69 -3.29,36.77 -4.94,87.89 -4.94,153.36 0,66.36 1.65,117.33 4.94,152.91z"/>
  <path id="1" class="fil1" d="M2913 2957.24c-12.55,-1.49 -23.76,-2.25 -33.63,-2.25 -9.56,0 -20.62,0.75 -33.18,2.25 2.4,-25.71 3.59,-60.54 3.59,-104.48 0,-29 -1.95,-48.43 -5.83,-58.3 -4.79,-12.55 -14.8,-18.83 -30.04,-18.83 -14.05,0 -23.93,5.9 -29.6,17.72 -5.68,11.81 -8.52,30.56 -8.52,56.27 0,28.1 1.04,63.98 3.14,107.62 -11.96,-1.49 -22.87,-2.25 -32.74,-2.25 -9.86,0 -20.77,0.75 -32.73,2.25 2.39,-39.16 3.59,-74.89 3.59,-107.17 0,-36.47 -1.2,-72.35 -3.59,-107.62 9.27,1.19 19.58,1.8 30.95,1.8 11.35,0 21.36,-0.6 30.04,-1.8l0 31.39c18.24,-23.91 41.25,-35.87 69.05,-35.87 22.72,0 40.35,7.32 52.91,21.97 5.98,7.18 10.02,16.44 12.11,27.81 1.19,7.77 1.8,20.32 1.8,37.67 0,2.99 0,10.76 0,23.32 -0.3,12.26 -0.45,23.16 -0.45,32.73 0,27.51 1.05,52.76 3.14,75.78z"/>
  <path id="2" class="fil1" d="M3115.24 2886.84c0,22.72 -7.77,41.11 -23.31,55.16 -15.55,14.05 -36.18,21.08 -61.89,21.08 -26.9,0 -49.17,-5.83 -66.82,-17.48 0.9,-5.09 2.85,-21.68 5.84,-49.77l6.28 0c10.16,30.78 29.44,46.18 57.84,46.18 22.43,0 33.63,-10.01 33.63,-30.04 0,-8.97 -4.63,-16.44 -13.9,-22.42 -4.18,-2.7 -17.03,-8.53 -38.56,-17.49 -19.14,-8.06 -32.74,-16.29 -40.81,-24.66 -8.97,-9.57 -13.45,-21.83 -13.45,-36.77 0,-21.83 7.39,-39.46 22.19,-52.91 14.81,-13.45 34.76,-20.18 59.87,-20.18 23.02,0 44.55,6.28 64.58,18.84 -5.98,13.75 -10.31,27.79 -13.01,42.15l-4.48 0c-13.15,-27.51 -30.78,-41.26 -52.91,-41.26 -9.56,0 -17.33,2.62 -23.31,7.84 -5.98,5.24 -8.97,11.89 -8.97,19.96 0,8.06 3.13,14.49 9.41,19.28 4.79,3.59 14.36,8.23 28.7,13.9 27.81,10.76 45.89,19.58 54.27,26.45 12.55,9.87 18.83,23.93 18.83,42.15z"/>
  <path id="3" class="fil1" d="M3279.82 2950.07c-19.13,8.37 -36.32,12.55 -51.57,12.55 -39.16,0 -58.74,-19.73 -58.74,-59.18 0,-0.9 0.22,-13.68 0.67,-38.35 0.44,-24.66 0.67,-48.95 0.67,-72.86l0 -23.76 -8.08 0c-9.57,0 -17.04,0.15 -22.42,0.44 0.89,-4.18 1.34,-8.06 1.34,-11.66 0,-3.88 -0.45,-7.77 -1.34,-11.66 12.56,1.19 21.08,1.8 25.56,1.8l4.94 0c0.3,-3.89 0.45,-9.72 0.45,-17.49 0,-14.34 -0.75,-28.7 -2.25,-43.05 21.23,-7.76 41.41,-16.44 60.54,-26l4.94 3.58c-1.8,34.09 -2.69,57.11 -2.69,69.06l0 13.9c15.84,0 30.34,-0.6 43.49,-1.8 -0.6,5.38 -0.9,9.27 -0.9,11.66 0,2.39 0.3,6.28 0.9,11.66 -6.88,-0.29 -21.68,-0.44 -44.4,-0.44 -1.19,38.26 -1.8,63.68 -1.8,76.22l0 17.94c0,30.2 1.2,49.63 3.59,58.3 2.99,11.35 10.01,17.04 21.08,17.04 5.98,0 14.64,-1.49 26.01,-4.48l0 16.59z"/>
  <path id="4" class="fil1" d="M3495.52 2742.45c-51.72,114.19 -99.41,226.6 -143.05,337.21 -5.68,-0.89 -11.96,-1.34 -18.83,-1.34 -6.28,0 -13.31,0.45 -21.08,1.34 8.37,-12.85 18.09,-30.78 29.14,-53.81l33.18 -68.61 -91.47 -214.79c10.46,1.19 22.12,1.8 34.98,1.8 12.85,0 24.52,-0.6 34.98,-1.8 14.64,43.64 32.43,89.83 53.35,138.56l52.02 -138.56c5.68,1.19 11.81,1.8 18.39,1.8 7.17,0 13.3,-0.6 18.39,-1.8z"/>
  <path id="5" class="fil1" d="M3639.01 2950.07c-19.13,8.37 -36.32,12.55 -51.57,12.55 -39.16,0 -58.74,-19.73 -58.74,-59.18 0,-0.9 0.22,-13.68 0.67,-38.35 0.44,-24.66 0.67,-48.95 0.67,-72.86l0 -23.76 -8.08 0c-9.57,0 -17.04,0.15 -22.42,0.44 0.89,-4.18 1.34,-8.06 1.34,-11.66 0,-3.88 -0.45,-7.77 -1.34,-11.66 12.56,1.19 21.08,1.8 25.56,1.8l4.94 0c0.3,-3.89 0.45,-9.72 0.45,-17.49 0,-14.34 -0.75,-28.7 -2.25,-43.05 21.23,-7.76 41.41,-16.44 60.54,-26l4.94 3.58c-1.8,34.09 -2.69,57.11 -2.69,69.06l0 13.9c15.84,0 30.34,-0.6 43.49,-1.8 -0.6,5.38 -0.9,9.27 -0.9,11.66 0,2.39 0.3,6.28 0.9,11.66 -6.88,-0.29 -21.68,-0.44 -44.4,-0.44 -1.19,38.26 -1.8,63.68 -1.8,76.22l0 17.94c0,30.2 1.2,49.63 3.59,58.3 2.99,11.35 10.01,17.04 21.08,17.04 5.98,0 14.64,-1.49 26.01,-4.48l0 16.59z"/>
  <path id="6" class="fil1" d="M3866.82 2957.24c-11.37,-1.49 -21.6,-2.25 -30.58,-2.25 -9.26,0 -19.58,0.75 -31.02,2.25l0 -30.49c-18.53,23.32 -41.48,34.98 -68.75,34.98 -23.69,0 -40.66,-6.65 -50.98,-19.95 -10.38,-13.31 -15.54,-34.01 -15.54,-62.11l0 -24.67c0,-33.77 -0.9,-71.29 -2.69,-112.55 9.86,1.19 21.08,1.8 33.62,1.8 12.56,0 23.62,-0.6 33.18,-1.8 -2.39,37.97 -3.58,71.74 -3.58,101.34 0,29.89 1.95,50.07 5.83,60.54 4.79,13.15 14.8,19.73 30.04,19.73 14.05,0 23.76,-5.83 29.15,-17.49 4.79,-10.46 7.17,-27.95 7.17,-52.46l0 -71.3c0,-9.57 -0.45,-23.02 -1.34,-40.35 9.94,1.19 20.92,1.8 32.96,1.8 12.03,0 22.87,-0.6 32.51,-1.8 -1.8,35.87 -2.69,71.6 -2.69,107.17 0,35.87 0.89,71.75 2.69,107.62z"/>
  <path id="7" class="fil1" d="M4037.66 2950.07c-19.13,8.37 -36.32,12.55 -51.57,12.55 -39.16,0 -58.74,-19.73 -58.74,-59.18 0,-0.9 0.22,-13.68 0.67,-38.35 0.44,-24.66 0.67,-48.95 0.67,-72.86l0 -23.76 -8.08 0c-9.57,0 -17.04,0.15 -22.42,0.44 0.89,-4.18 1.34,-8.06 1.34,-11.66 0,-3.88 -0.45,-7.77 -1.34,-11.66 12.56,1.19 21.08,1.8 25.56,1.8l4.94 0c0.3,-3.89 0.45,-9.72 0.45,-17.49 0,-14.34 -0.75,-28.7 -2.25,-43.05 21.23,-7.76 41.41,-16.44 60.54,-26l4.94 3.58c-1.8,34.09 -2.69,57.11 -2.69,69.06l0 13.9c15.84,0 30.34,-0.6 43.49,-1.8 -0.6,5.38 -0.9,9.27 -0.9,11.66 0,2.39 0.3,6.28 0.9,11.66 -6.88,-0.29 -21.68,-0.44 -44.4,-0.44 -1.19,38.26 -1.8,63.68 -1.8,76.22l0 17.94c0,30.2 1.2,49.63 3.59,58.3 2.99,11.35 10.01,17.04 21.08,17.04 5.98,0 14.64,-1.49 26.01,-4.48l0 16.59z"/>
  <path id="8" class="fil1" d="M4410.76 2690.43c-23.32,-3.59 -48.58,-5.38 -75.78,-5.38l-8.97 0c-1.19,21.52 -1.8,53.65 -1.8,96.41 0,80.12 1.65,138.71 4.94,175.78 -14.36,-1.49 -27.2,-2.25 -38.57,-2.25 -11.05,0 -23.31,0.75 -36.76,2.25 3.58,-44.25 5.38,-95.21 5.38,-152.91 0,-22.42 -0.6,-62.18 -1.8,-119.28l-9.42 0c-27.2,0 -52.46,1.78 -75.78,5.38 0.9,-7.77 1.36,-14.8 1.36,-21.08 0,-6.58 -0.45,-12.71 -1.36,-18.39 46.65,2.1 86.4,3.14 119.29,3.14 33.48,0 73.24,-1.04 119.28,-3.14 -0.89,5.68 -1.34,11.81 -1.34,18.39 0,6.28 0.45,13.3 1.34,21.08z"/>
  <path id="9" class="fil1" d="M4586.98 2836.17c0,6.28 -0.15,11.06 -0.44,14.34l-137.23 0c0,26.16 6.21,46.71 18.61,61.59 12.41,14.86 28.93,22.27 49.55,22.27 20.63,0 39.76,-7.02 57.4,-21.08l4.48 3.14 -9.86 25.71c-19.13,13.67 -43.8,20.47 -73.99,20.47 -34.98,0 -62.33,-10.23 -82.06,-30.71 -19.73,-20.47 -29.6,-48.95 -29.6,-85.42 0,-32.29 9.72,-58.59 29.15,-78.92 19.43,-20.32 45.59,-30.49 78.47,-30.49 30.8,0 54.41,8.53 70.86,25.56 16.44,17.04 24.66,41.56 24.66,73.55zm-61.43 -18.39c0,-40.96 -11.66,-61.43 -34.98,-61.43 -27.51,0 -41.26,22.72 -41.26,68.16l0 4.03 75.78 0c0,-1.8 0.15,-3.88 0.45,-6.28 0,-2.39 0,-3.88 0,-4.48z"/>
  <path id="10" class="fil1" d="M4802.23 2756.79c-8.38,18.84 -14.2,33.78 -17.49,44.85l-5.83 -2.7c-7.47,-27.79 -23.61,-41.7 -48.43,-41.7 -17.33,0 -31.09,7.77 -41.25,23.32 -10.17,15.54 -15.25,37.06 -15.25,64.57 0,60.39 21.82,90.58 65.46,90.58 19.44,0 37.67,-6.87 54.71,-20.62l3.14 1.8c-1.8,11.96 -2.99,20.47 -3.58,25.56 -20.03,13.15 -42.9,19.73 -68.61,19.73 -35.28,0 -63.23,-9.94 -83.86,-29.82 -20.62,-19.88 -30.93,-47.02 -30.93,-81.39 0,-34.07 10.61,-61.58 31.84,-82.5 21.23,-20.94 49.02,-31.4 83.41,-31.4 31.69,0 57.25,6.58 76.68,19.73z"/>
  <path id="11" class="fil1" d="M5034.96 2957.24c-12.56,-1.49 -23.62,-2.25 -33.18,-2.25 -9.57,0 -20.63,0.75 -33.18,2.25 2.39,-25.71 3.58,-60.54 3.58,-104.48 0,-29 -1.93,-48.43 -5.83,-58.3 -4.79,-12.55 -14.8,-18.83 -30.04,-18.83 -14.05,0 -23.91,5.9 -29.6,17.72 -5.68,11.81 -8.52,30.56 -8.52,56.27 0,28.1 1.04,63.98 3.14,107.62 -11.96,-1.49 -22.87,-2.25 -32.73,-2.25 -9.87,0 -20.79,0.75 -32.74,2.25 2.4,-29.3 3.59,-82.52 3.59,-159.64 0,-82.2 -1.19,-141.09 -3.59,-176.68 11.96,2.39 22.87,3.59 32.74,3.59 10.46,0 21.38,-1.2 32.73,-3.59 -2.99,24.21 -4.48,52.46 -4.48,84.75l0 69.5c16.14,-24.81 39.16,-37.21 69.05,-37.21 22.43,0 39.91,7.32 52.47,21.97 9.56,11.06 14.34,32.89 14.34,65.47 0,2.99 0,10.76 0,23.32 -0.3,12.26 -0.44,23.16 -0.44,32.73 0,30.8 0.89,56.05 2.69,75.78z"/>
  <path id="12" class="fil1" d="M5290.1 2957.24c-12.55,-1.49 -23.76,-2.25 -33.63,-2.25 -9.56,0 -20.62,0.75 -33.18,2.25 2.4,-25.71 3.59,-60.54 3.59,-104.48 0,-29 -1.95,-48.43 -5.83,-58.3 -4.79,-12.55 -14.8,-18.83 -30.04,-18.83 -14.05,0 -23.93,5.9 -29.6,17.72 -5.68,11.81 -8.52,30.56 -8.52,56.27 0,28.1 1.04,63.98 3.14,107.62 -11.96,-1.49 -22.87,-2.25 -32.74,-2.25 -9.86,0 -20.77,0.75 -32.73,2.25 2.39,-39.16 3.59,-74.89 3.59,-107.17 0,-36.47 -1.2,-72.35 -3.59,-107.62 9.27,1.19 19.58,1.8 30.95,1.8 11.35,0 21.36,-0.6 30.04,-1.8l0 31.39c18.24,-23.91 41.25,-35.87 69.05,-35.87 22.72,0 40.35,7.32 52.91,21.97 5.98,7.18 10.02,16.44 12.11,27.81 1.19,7.77 1.8,20.32 1.8,37.67 0,2.99 0,10.76 0,23.32 -0.3,12.26 -0.45,23.16 -0.45,32.73 0,27.51 1.05,52.76 3.14,75.78z"/>
  <path id="13" class="fil1" d="M5555.57 2850.07c0,35.57 -9.94,63.23 -29.81,82.96 -19.88,19.73 -47.47,29.59 -82.74,29.59 -35.58,0 -63.16,-9.86 -82.74,-29.59 -19.58,-19.73 -29.37,-47.39 -29.37,-82.96 0,-35.58 9.86,-63.31 29.59,-83.19 19.73,-19.88 47.39,-29.82 82.96,-29.82 35.88,0 63.53,9.79 82.97,29.37 19.43,19.59 29.14,47.47 29.14,83.64zm-65.91 0c0,-32.89 -3.44,-56.66 -10.31,-71.3 -6.88,-14.66 -18.99,-21.98 -36.32,-21.98 -17.34,0 -29.37,7.25 -36.1,21.75 -6.73,14.51 -10.09,38.35 -10.09,71.53 0,33.18 3.29,56.79 9.87,70.85 6.87,14.95 18.98,22.42 36.32,22.42 17.33,0 29.44,-7.32 36.32,-21.97 6.87,-14.66 10.31,-38.42 10.31,-71.3z"/>
  <path id="14" class="fil1" d="M5662.31 2957.24c-10.17,-2.1 -21.23,-3.14 -33.19,-3.14 -11.66,0 -22.86,1.04 -33.62,3.14 2.39,-49.92 3.58,-105.68 3.58,-167.27 0,-64.87 -1.19,-121.22 -3.58,-169.05 13.15,2.1 24.21,3.14 33.18,3.14 9.27,0 20.47,-1.04 33.63,-3.14 -2.1,49.92 -3.14,105.68 -3.14,167.27 0,64.87 1.04,121.22 3.14,169.05z"/>
  <path id="15" class="fil1" d="M5927.31 2850.07c0,35.57 -9.94,63.23 -29.81,82.96 -19.88,19.73 -47.47,29.59 -82.74,29.59 -35.58,0 -63.16,-9.86 -82.74,-29.59 -19.58,-19.73 -29.37,-47.39 -29.37,-82.96 0,-35.58 9.86,-63.31 29.59,-83.19 19.73,-19.88 47.39,-29.82 82.96,-29.82 35.88,0 63.53,9.79 82.97,29.37 19.43,19.59 29.14,47.47 29.14,83.64zm-65.91 0c0,-32.89 -3.44,-56.66 -10.31,-71.3 -6.88,-14.66 -18.99,-21.98 -36.32,-21.98 -17.34,0 -29.37,7.25 -36.1,21.75 -6.73,14.51 -10.09,38.35 -10.09,71.53 0,33.18 3.29,56.79 9.87,70.85 6.87,14.95 18.98,22.42 36.32,22.42 17.33,0 29.44,-7.32 36.32,-21.97 6.87,-14.66 10.31,-38.42 10.31,-71.3z"/>
  <path id="16" class="fil1" d="M6170.36 2985.49c0,27.2 -11.28,49.7 -33.87,67.49 -22.57,17.8 -52.24,26.68 -89,26.68 -30.19,0 -53.59,-5.23 -70.19,-15.69 -16.59,-10.47 -24.89,-24.52 -24.89,-42.16 0,-25.71 15.25,-43.8 45.74,-54.26l0.45 -3.58c-19.13,-5.69 -28.7,-17.49 -28.7,-35.43 0,-20.92 14.95,-37.67 44.84,-50.23l0 -5.38c-38.56,-7.77 -57.85,-29 -57.85,-63.68 0,-21.53 8.3,-38.94 24.9,-52.24 16.59,-13.31 39.08,-19.96 67.48,-19.96 2.7,0 12.71,0.6 30.05,1.8 17.33,1.19 33.33,1.8 47.98,1.8 12.26,0 25.71,-0.45 40.35,-1.34l0 21.97c-8.06,-0.29 -22.87,-0.89 -44.39,-1.78 15.54,10.16 23.31,25.41 23.31,45.73 0,23.02 -8.82,41.11 -26.45,54.27 -17.65,13.15 -42.45,19.73 -74.44,19.73l-7.62 0c-13.15,1.49 -19.73,8.67 -19.73,21.52 0,9.57 5.38,15.7 16.14,18.39 6.58,1.8 23.17,3.29 49.77,4.48 17.04,0.6 28.56,1.34 34.54,2.25 10.16,1.19 18.09,3.43 23.76,6.72 18.54,10.76 27.81,28.41 27.81,52.91zm-85.66 -182.5c0,-31.99 -10.76,-47.99 -32.29,-47.99 -23.01,0 -34.53,17.65 -34.53,52.93 0,35.57 11.06,53.35 33.18,53.35 12.26,0 20.92,-4.55 26.01,-13.67 5.09,-9.12 7.62,-23.99 7.62,-44.62zm31.84 210.53c0,-25.56 -15.7,-39.08 -47.09,-40.57l-51.57 -2.7c-15.55,8.08 -23.31,21.31 -23.31,39.69 0,15.17 5.16,27.42 15.47,36.62 10.31,9.19 24.13,13.82 41.48,13.82 20.62,0 36.62,-4.18 47.98,-12.48 11.37,-8.38 17.04,-19.81 17.04,-34.39z"/>
  <path id="17" class="fil1" d="M6265.87 2662.18c0,9.27 -3.28,17.18 -9.86,23.76 -6.58,6.58 -14.64,9.87 -24.21,9.87 -9.27,0 -17.19,-3.29 -23.76,-9.87 -6.58,-6.58 -9.87,-14.49 -9.87,-23.76 0,-9.57 3.29,-17.65 9.87,-24.21 6.57,-6.58 14.64,-9.87 24.21,-9.87 9.26,0 17.18,3.29 23.76,9.87 6.58,6.57 9.86,14.64 9.86,24.21zm-0.44 295.06c-11.96,-1.49 -23.17,-2.25 -33.63,-2.25 -9.87,0 -21.08,0.75 -33.63,2.25 2.39,-39.16 3.59,-74.89 3.59,-107.17 0,-36.47 -1.2,-72.35 -3.59,-107.62 9.87,1.19 21.08,1.8 33.63,1.8 12.85,0 24.06,-0.6 33.63,-1.8 -2.4,35.27 -3.59,71.15 -3.59,107.62 0,32.28 1.19,68.01 3.59,107.17z"/>
  <path id="18" class="fil1" d="M6390.53 2662.18c0,9.27 -3.28,17.18 -9.86,23.76 -6.58,6.58 -14.64,9.87 -24.21,9.87 -9.27,0 -17.19,-3.29 -23.76,-9.87 -6.58,-6.58 -9.87,-14.49 -9.87,-23.76 0,-9.57 3.29,-17.65 9.87,-24.21 6.57,-6.58 14.64,-9.87 24.21,-9.87 9.26,0 17.18,3.29 23.76,9.87 6.58,6.57 9.86,14.64 9.86,24.21zm-0.44 295.06c-11.96,-1.49 -23.17,-2.25 -33.63,-2.25 -9.87,0 -21.08,0.75 -33.63,2.25 2.39,-39.16 3.59,-74.89 3.59,-107.17 0,-36.47 -1.2,-72.35 -3.59,-107.62 9.87,1.19 21.08,1.8 33.63,1.8 12.85,0 24.06,-0.6 33.63,-1.8 -2.4,35.27 -3.59,71.15 -3.59,107.62 0,32.28 1.19,68.01 3.59,107.17z"/>
  <path id="19" class="fil1" d="M6782.47 2731.23c0,62.48 -41.11,93.72 -123.32,93.72 -1.49,0 -3.88,-0.15 -7.17,-0.44 -3.29,0 -5.83,0 -7.62,0l0 65.91c0,6.88 1.65,29.15 4.94,66.82 -14.05,-1.49 -26.6,-2.25 -37.67,-2.25 -11.06,0 -23.32,0.75 -36.77,2.25 3.59,-38.86 5.39,-89.84 5.39,-152.91 0,-61.58 -1.8,-112.71 -5.39,-153.36 10.76,1.19 21.23,1.8 31.39,1.8 6.28,0 17.65,-0.37 34.09,-1.12 16.44,-0.74 29.89,-1.12 40.35,-1.12 34.68,0 60.32,6.43 76.91,19.29 16.59,12.85 24.89,33.33 24.89,61.43zm-70.85 2.25c0,-38.57 -16.89,-57.85 -50.68,-57.85 -2.69,0 -7.32,0.3 -13.9,0.89 -2.09,19.43 -3.13,36.03 -3.13,49.77l0 74c23.91,0 41.18,-5.24 51.79,-15.7 10.61,-10.46 15.92,-27.51 15.92,-51.12z"/>
  <path id="20" class="fil1" d="M7021.47 2850.07c0,35.57 -9.94,63.23 -29.81,82.96 -19.88,19.73 -47.47,29.59 -82.74,29.59 -35.58,0 -63.16,-9.86 -82.74,-29.59 -19.58,-19.73 -29.37,-47.39 -29.37,-82.96 0,-35.58 9.86,-63.31 29.59,-83.19 19.73,-19.88 47.39,-29.82 82.96,-29.82 35.88,0 63.53,9.79 82.97,29.37 19.43,19.59 29.14,47.47 29.14,83.64zm-65.91 0c0,-32.89 -3.44,-56.66 -10.31,-71.3 -6.88,-14.66 -18.99,-21.98 -36.32,-21.98 -17.34,0 -29.37,7.25 -36.1,21.75 -6.73,14.51 -10.09,38.35 -10.09,71.53 0,33.18 3.29,56.79 9.87,70.85 6.87,14.95 18.98,22.42 36.32,22.42 17.33,0 29.44,-7.32 36.32,-21.97 6.87,-14.66 10.31,-38.42 10.31,-71.3z"/>
  <path id="21" class="fil1" d="M7128.21 2957.24c-10.17,-2.1 -21.23,-3.14 -33.19,-3.14 -11.66,0 -22.86,1.04 -33.62,3.14 2.39,-49.92 3.58,-105.68 3.58,-167.27 0,-64.87 -1.19,-121.22 -3.58,-169.05 13.15,2.1 24.21,3.14 33.18,3.14 9.27,0 20.47,-1.04 33.63,-3.14 -2.1,49.92 -3.14,105.68 -3.14,167.27 0,64.87 1.04,121.22 3.14,169.05z"/>
  <path id="22" class="fil1" d="M7252.41 2662.18c0,9.27 -3.28,17.18 -9.86,23.76 -6.58,6.58 -14.64,9.87 -24.21,9.87 -9.27,0 -17.19,-3.29 -23.76,-9.87 -6.58,-6.58 -9.87,-14.49 -9.87,-23.76 0,-9.57 3.29,-17.65 9.87,-24.21 6.57,-6.58 14.64,-9.87 24.21,-9.87 9.26,0 17.18,3.29 23.76,9.87 6.58,6.57 9.86,14.64 9.86,24.21zm-0.44 295.06c-11.96,-1.49 -23.17,-2.25 -33.63,-2.25 -9.87,0 -21.08,0.75 -33.63,2.25 2.39,-39.16 3.59,-74.89 3.59,-107.17 0,-36.47 -1.2,-72.35 -3.59,-107.62 9.87,1.19 21.08,1.8 33.63,1.8 12.85,0 24.06,-0.6 33.63,-1.8 -2.4,35.27 -3.59,71.15 -3.59,107.62 0,32.28 1.19,68.01 3.59,107.17z"/>
  <path id="23" class="fil1" d="M7640.75 2957.24c-12.85,-1.49 -24.21,-2.25 -34.07,-2.25 -9.87,0 -20.77,0.75 -32.74,2.25 2.7,-38.57 4.04,-72.19 4.04,-100.89 0,-30.19 -1.95,-50.53 -5.83,-60.99 -4.79,-13.45 -14.81,-20.18 -30.05,-20.18 -14.04,0 -23.91,5.83 -29.59,17.49 -4.79,10.46 -7.17,28.1 -7.17,52.91l0 70.85c0,6.87 0.59,20.47 1.8,40.81 -12.56,-1.49 -23.77,-2.25 -33.63,-2.25 -9.57,0 -20.63,0.75 -33.18,2.25 2.39,-33.78 3.58,-64.87 3.58,-93.27 0,-34.09 -1.65,-56.35 -4.92,-66.82 -4.79,-14.66 -15.11,-21.98 -30.95,-21.98 -14.05,0 -23.76,5.98 -29.15,17.94 -4.79,10.17 -7.17,27.66 -7.17,52.47l0 70.85c0,6.87 0.6,20.47 1.8,40.81 -11.44,-1.49 -22.28,-2.25 -32.51,-2.25 -9.35,0 -20.33,0.75 -32.96,2.25 1.8,-48.43 2.69,-84.3 2.69,-107.62 0,-23.61 -0.89,-59.34 -2.69,-107.17 9.57,1.19 20.03,1.8 31.47,1.8 11.96,0 22.27,-0.6 30.93,-1.8l0 30.04c17.94,-23.02 39.98,-34.53 65.99,-34.53 31.17,0 51.94,13.9 62.4,41.7 17.43,-27.79 41.19,-41.7 71.45,-41.7 22.13,0 39.31,7.17 51.65,21.53 7.47,8.67 12.26,20.62 14.34,35.87 1.49,10.16 2.25,27.66 2.25,52.46l0 27.81c0,25.11 0.74,52.31 2.24,81.61z"/>
  <path id="24" class="fil1" d="M7885.58 2836.17c0,6.28 -0.15,11.06 -0.44,14.34l-137.23 0c0,26.16 6.21,46.71 18.61,61.59 12.41,14.86 28.93,22.27 49.55,22.27 20.63,0 39.76,-7.02 57.4,-21.08l4.48 3.14 -9.86 25.71c-19.13,13.67 -43.8,20.47 -73.99,20.47 -34.98,0 -62.33,-10.23 -82.06,-30.71 -19.73,-20.47 -29.6,-48.95 -29.6,-85.42 0,-32.29 9.72,-58.59 29.15,-78.92 19.43,-20.32 45.59,-30.49 78.47,-30.49 30.8,0 54.41,8.53 70.86,25.56 16.44,17.04 24.66,41.56 24.66,73.55zm-61.43 -18.39c0,-40.96 -11.66,-61.43 -34.98,-61.43 -27.51,0 -41.26,22.72 -41.26,68.16l0 4.03 75.78 0c0,-1.8 0.15,-3.88 0.45,-6.28 0,-2.39 0,-3.88 0,-4.48z"/>
  <path id="25" class="fil1" d="M8058.68 2802.99c-11.96,-4.48 -21.68,-6.73 -29.15,-6.73 -28.1,0 -42.15,21.23 -42.15,63.68 0,34.68 1.34,67.12 4.03,97.31 -11.96,-1.49 -23.02,-2.25 -33.18,-2.25 -9.57,0 -20.62,0.75 -33.18,2.25 2.1,-29.59 3.14,-65.47 3.14,-107.62 0,-48.13 -1.04,-83.86 -3.14,-107.17 9.27,1.19 19.73,1.8 31.39,1.8 11.37,0 21.68,-0.6 30.95,-1.8 -1.49,26.01 -2.25,45.14 -2.25,57.4l2.25 0c11.05,-41.85 34.07,-62.78 69.05,-62.78l2.25 0c-1.8,10.76 -2.69,21.53 -2.69,32.29 0,11.06 0.89,22.27 2.69,33.63z"/>
  <path id="26" class="fil1" d="M8255.09 2649.62c0,8.97 -6.88,17.04 -20.63,24.21l-76.22 39.91 -20.63 0 64.13 -66.36c12.56,-12.86 23.17,-19.29 31.84,-19.29 6.28,0 11.44,2.1 15.47,6.28 4.04,4.18 6.06,9.27 6.06,15.25zm50.67 200.45c0,35.57 -9.94,63.23 -29.81,82.96 -19.88,19.73 -47.47,29.59 -82.74,29.59 -35.58,0 -63.16,-9.86 -82.74,-29.59 -19.58,-19.73 -29.37,-47.39 -29.37,-82.96 0,-35.58 9.86,-63.31 29.59,-83.19 19.73,-19.88 47.39,-29.82 82.96,-29.82 35.88,0 63.53,9.79 82.97,29.37 19.43,19.59 29.14,47.47 29.14,83.64zm-65.91 0c0,-32.89 -3.44,-56.66 -10.31,-71.3 -6.88,-14.66 -18.99,-21.98 -36.32,-21.98 -17.34,0 -29.37,7.25 -36.1,21.75 -6.73,14.51 -10.09,38.35 -10.09,71.53 0,33.18 3.29,56.79 9.87,70.85 6.87,14.95 18.98,22.42 36.32,22.42 17.33,0 29.44,-7.32 36.32,-21.97 6.87,-14.66 10.31,-38.42 10.31,-71.3z"/>
  <path id="27" class="fil1" d="M8647.01 2742.45c-26.31,69.35 -50.53,140.96 -72.64,214.79 -8.97,-1.49 -17.19,-2.25 -24.67,-2.25 -6.87,0 -15.1,0.75 -24.67,2.25 -10.76,-39.46 -25.41,-88.04 -43.95,-145.74 -14.95,46.34 -29.89,94.92 -44.84,145.74 -8.97,-1.49 -17.34,-2.25 -25.12,-2.25 -7.17,0 -15.54,0.75 -25.11,2.25 -17.63,-61.88 -40.06,-133.48 -67.27,-214.79 9.57,1.19 20.48,1.8 32.74,1.8 12.26,0 23.17,-0.6 32.73,-1.8 17.94,63.68 32.44,114.19 43.49,151.57 17.34,-54.12 32.14,-104.63 44.4,-151.57 7.47,1.19 16.15,1.8 26.01,1.8 9.57,0 18.09,-0.6 25.56,-1.8 12.56,46.63 27.05,97.16 43.49,151.57 18.84,-60.99 33.94,-111.52 45.3,-151.57 5.07,1.19 10.9,1.8 17.48,1.8 6.28,0 11.96,-0.6 17.04,-1.8z"/>
  <path id="28" class="fil1" d="M8863.6 2662.18c0,9.27 -3.28,17.18 -9.86,23.76 -6.58,6.58 -14.64,9.87 -24.21,9.87 -9.27,0 -17.19,-3.29 -23.76,-9.87 -6.58,-6.58 -9.87,-14.49 -9.87,-23.76 0,-9.57 3.29,-17.65 9.87,-24.21 6.57,-6.58 14.64,-9.87 24.21,-9.87 9.26,0 17.18,3.29 23.76,9.87 6.58,6.57 9.86,14.64 9.86,24.21zm-0.44 295.06c-11.96,-1.49 -23.17,-2.25 -33.63,-2.25 -9.87,0 -21.08,0.75 -33.63,2.25 2.39,-39.16 3.59,-74.89 3.59,-107.17 0,-36.47 -1.2,-72.35 -3.59,-107.62 9.87,1.19 21.08,1.8 33.63,1.8 12.85,0 24.06,-0.6 33.63,-1.8 -2.4,35.27 -3.59,71.15 -3.59,107.62 0,32.28 1.19,68.01 3.59,107.17z"/>
  <path id="29" class="fil1" d="M9262.7 2872.04c0,26.61 -9.27,47.46 -27.79,62.55 -18.54,15.1 -44.55,22.65 -78.03,22.65 -8.08,0 -20.77,-0.3 -38.12,-0.89 -17.33,-0.6 -30.63,-0.9 -39.9,-0.9 -5.09,0 -15.4,0.6 -30.95,1.8 3.29,-24.82 4.94,-62.48 4.94,-113l0 -39.91c0,-72.95 -1.65,-124.06 -4.94,-153.36 26.53,0.9 45.37,1.34 56.42,1.34 6.21,0 15.18,-0.22 26.83,-0.67 11.59,-0.44 19.95,-0.67 25.04,-0.67 65.62,0 98.43,23.47 98.43,70.41 0,20.62 -7.77,37.21 -23.39,49.77 -15.63,12.56 -38.05,19.88 -67.2,21.97l0 2.25c65.77,0 98.66,25.56 98.66,76.68zm-73.54 -146.18c0,-33.48 -17.94,-50.23 -53.89,-50.23 -2.99,0 -7.77,0.3 -14.27,0.89 -2.1,14.95 -3.14,33.48 -3.14,55.61l0 52.91c1.19,0 2.69,0 4.48,0 2.02,0.29 3.51,0.44 4.41,0.44 41.63,0 62.4,-19.88 62.4,-59.63zm3.58 144.84c0,-40.96 -20.32,-61.43 -61.06,-61.43 -5.68,0 -10.09,0.15 -13.37,0.44l0 58.3c0,20.62 0.59,41.7 1.78,63.23 6.51,1.49 11.74,2.25 15.63,2.25 38.04,0 57.01,-20.92 57.01,-62.78z"/>
  <path id="30" class="fil1" d="M9507.54 2951.42c-15.84,6.58 -31.54,9.86 -47.09,9.86 -21.82,0 -35.27,-10.76 -40.35,-32.28 -13.23,22.42 -33.55,33.62 -60.99,33.62 -18.68,0 -33.4,-5.53 -44.1,-16.59 -10.68,-11.05 -15.99,-26.3 -15.99,-45.73 0,-27.2 15.7,-46.19 47.09,-56.96 13.15,-4.18 26.38,-8.37 39.68,-12.56 13.3,-4.18 23.69,-8.82 31.17,-13.89 0.3,-1.8 0.45,-4.33 0.45,-7.62 0,-13.45 -3.89,-24.21 -11.67,-32.29 -7.84,-8.08 -18.16,-12.11 -31.02,-12.11 -19.8,0 -36.54,11.5 -50.36,34.53 -3.89,-11.96 -7.18,-21.53 -9.87,-28.7 25.79,-22.72 52.39,-34.07 79.97,-34.07 26.91,0 47.54,6.2 61.96,18.61 14.36,12.41 21.53,30.11 21.53,53.13l0 2.25 -1.34 86.55c0,17.03 1.65,28.25 4.92,33.62 3.89,6.28 12.11,9.42 24.67,9.42l1.34 0 0 11.22zm-89.24 -60.09l0 -52.02c-20.77,4.18 -35.87,10.53 -45.21,19.06 -9.35,8.52 -13.98,20.55 -13.98,36.09 0,25.71 9.35,38.57 28.03,38.57 20.79,0 31.17,-13.9 31.17,-41.7z"/>
  <path id="31" class="fil1" d="M9671.22 2802.99c-11.96,-4.48 -21.68,-6.73 -29.15,-6.73 -28.1,0 -42.15,21.23 -42.15,63.68 0,34.68 1.34,67.12 4.03,97.31 -11.96,-1.49 -23.02,-2.25 -33.18,-2.25 -9.57,0 -20.62,0.75 -33.18,2.25 2.1,-29.59 3.14,-65.47 3.14,-107.62 0,-48.13 -1.04,-83.86 -3.14,-107.17 9.27,1.19 19.73,1.8 31.39,1.8 11.37,0 21.68,-0.6 30.95,-1.8 -1.49,26.01 -2.25,45.14 -2.25,57.4l2.25 0c11.05,-41.85 34.07,-62.78 69.05,-62.78l2.25 0c-1.8,10.76 -2.69,21.53 -2.69,32.29 0,11.06 0.89,22.27 2.69,33.63z"/>
  <path id="32" class="fil1" d="M10010.23 2742.45c-26.31,69.35 -50.53,140.96 -72.64,214.79 -8.97,-1.49 -17.19,-2.25 -24.67,-2.25 -6.87,0 -15.1,0.75 -24.67,2.25 -10.76,-39.46 -25.41,-88.04 -43.95,-145.74 -14.95,46.34 -29.89,94.92 -44.84,145.74 -8.97,-1.49 -17.34,-2.25 -25.12,-2.25 -7.17,0 -15.54,0.75 -25.11,2.25 -17.63,-61.88 -40.06,-133.48 -67.27,-214.79 9.57,1.19 20.48,1.8 32.74,1.8 12.26,0 23.17,-0.6 32.73,-1.8 17.94,63.68 32.44,114.19 43.49,151.57 17.34,-54.12 32.14,-104.63 44.4,-151.57 7.47,1.19 16.15,1.8 26.01,1.8 9.57,0 18.09,-0.6 25.56,-1.8 12.56,46.63 27.05,97.16 43.49,151.57 18.84,-60.99 33.94,-111.52 45.3,-151.57 5.07,1.19 10.9,1.8 17.48,1.8 6.28,0 11.96,-0.6 17.04,-1.8z"/>
  <path id="33" class="fil1" d="M10234.45 2957.24c-12.55,-1.49 -23.76,-2.25 -33.63,-2.25 -9.56,0 -20.62,0.75 -33.18,2.25 2.4,-25.71 3.59,-60.54 3.59,-104.48 0,-29 -1.95,-48.43 -5.83,-58.3 -4.79,-12.55 -14.8,-18.83 -30.04,-18.83 -14.05,0 -23.93,5.9 -29.6,17.72 -5.68,11.81 -8.52,30.56 -8.52,56.27 0,28.1 1.04,63.98 3.14,107.62 -11.96,-1.49 -22.87,-2.25 -32.74,-2.25 -9.86,0 -20.77,0.75 -32.73,2.25 2.39,-39.16 3.59,-74.89 3.59,-107.17 0,-36.47 -1.2,-72.35 -3.59,-107.62 9.27,1.19 19.58,1.8 30.95,1.8 11.35,0 21.36,-0.6 30.04,-1.8l0 31.39c18.24,-23.91 41.25,-35.87 69.05,-35.87 22.72,0 40.35,7.32 52.91,21.97 5.98,7.18 10.02,16.44 12.11,27.81 1.19,7.77 1.8,20.32 1.8,37.67 0,2.99 0,10.76 0,23.32 -0.3,12.26 -0.45,23.16 -0.45,32.73 0,27.51 1.05,52.76 3.14,75.78z"/>
  <path id="34" class="fil1" d="M10359.11 2662.18c0,9.27 -3.28,17.18 -9.86,23.76 -6.58,6.58 -14.64,9.87 -24.21,9.87 -9.27,0 -17.19,-3.29 -23.76,-9.87 -6.58,-6.58 -9.87,-14.49 -9.87,-23.76 0,-9.57 3.29,-17.65 9.87,-24.21 6.57,-6.58 14.64,-9.87 24.21,-9.87 9.26,0 17.18,3.29 23.76,9.87 6.58,6.57 9.86,14.64 9.86,24.21zm-0.44 295.06c-11.96,-1.49 -23.17,-2.25 -33.63,-2.25 -9.87,0 -21.08,0.75 -33.63,2.25 2.39,-39.16 3.59,-74.89 3.59,-107.17 0,-36.47 -1.2,-72.35 -3.59,-107.62 9.87,1.19 21.08,1.8 33.63,1.8 12.85,0 24.06,-0.6 33.63,-1.8 -2.4,35.27 -3.59,71.15 -3.59,107.62 0,32.28 1.19,68.01 3.59,107.17z"/>
  <path id="35" class="fil1" d="M10614.27 2957.24c-12.85,-1.49 -24.81,-2.25 -35.87,-2.25 -10.76,0 -22.87,0.75 -36.32,2.25 -17.04,-33.18 -38.12,-68.16 -63.23,-104.93l0 22.42c0,39.17 0.74,66.67 2.24,82.52 -11.96,-1.49 -23.02,-2.25 -33.18,-2.25 -9.57,0 -20.62,0.75 -33.18,2.25 2.69,-45.14 4.03,-106.73 4.03,-184.75 0,-62.78 -1.34,-113.3 -4.03,-151.57 10.46,1.19 21.83,1.8 34.07,1.8 12.86,0 24.21,-0.6 34.09,-1.8 -2.69,24.21 -4.03,57.7 -4.03,100.45l0 121.97c38.86,-39.16 67.86,-72.8 86.99,-100.89 6.28,1.19 13.16,1.8 20.63,1.8 7.17,0 13.6,-0.6 19.28,-1.8l2.24 1.8 -76.22 80.27 82.5 132.73z"/>
  <path id="36" class="fil1" d="M10800.38 2649.62c0,8.97 -6.88,17.04 -20.63,24.21l-76.22 39.91 -20.63 0 64.13 -66.36c12.56,-12.86 23.17,-19.29 31.84,-19.29 6.28,0 11.44,2.1 15.47,6.28 4.04,4.18 6.06,9.27 6.06,15.25zm50.67 200.45c0,35.57 -9.94,63.23 -29.81,82.96 -19.88,19.73 -47.47,29.59 -82.74,29.59 -35.58,0 -63.16,-9.86 -82.74,-29.59 -19.58,-19.73 -29.37,-47.39 -29.37,-82.96 0,-35.58 9.86,-63.31 29.59,-83.19 19.73,-19.88 47.39,-29.82 82.96,-29.82 35.88,0 63.53,9.79 82.97,29.37 19.43,19.59 29.14,47.47 29.14,83.64zm-65.91 0c0,-32.89 -3.44,-56.66 -10.31,-71.3 -6.88,-14.66 -18.99,-21.98 -36.32,-21.98 -17.34,0 -29.37,7.25 -36.1,21.75 -6.73,14.51 -10.09,38.35 -10.09,71.53 0,33.18 3.29,56.79 9.87,70.85 6.87,14.95 18.98,22.42 36.32,22.42 17.33,0 29.44,-7.32 36.32,-21.97 6.87,-14.66 10.31,-38.42 10.31,-71.3z"/>
  <path id="37" class="fil1" d="M11192.3 2742.45c-26.31,69.35 -50.53,140.96 -72.64,214.79 -8.97,-1.49 -17.19,-2.25 -24.67,-2.25 -6.87,0 -15.1,0.75 -24.67,2.25 -10.76,-39.46 -25.41,-88.04 -43.95,-145.74 -14.95,46.34 -29.89,94.92 -44.84,145.74 -8.97,-1.49 -17.34,-2.25 -25.12,-2.25 -7.17,0 -15.54,0.75 -25.11,2.25 -17.63,-61.88 -40.06,-133.48 -67.27,-214.79 9.57,1.19 20.48,1.8 32.74,1.8 12.26,0 23.17,-0.6 32.73,-1.8 17.94,63.68 32.44,114.19 43.49,151.57 17.34,-54.12 32.14,-104.63 44.4,-151.57 7.47,1.19 16.15,1.8 26.01,1.8 9.57,0 18.09,-0.6 25.56,-1.8 12.56,46.63 27.05,97.16 43.49,151.57 18.84,-60.99 33.94,-111.52 45.3,-151.57 5.07,1.19 10.9,1.8 17.48,1.8 6.28,0 11.96,-0.6 17.04,-1.8z"/>
 </g>
</svg>
